<svg width="32" height="32" viewBox="0 0 32 32" fill="none" xmlns="http://www.w3.org/2000/svg">
  <defs>
    <linearGradient id="g" x1="0" y1="0" x2="32" y2="32" gradientUnits="userSpaceOnUse">
      <stop stop-color="#F5623B"/>
      <stop offset="1" stop-color="#E23C17"/>
    </linearGradient>
  </defs>
  <rect width="32" height="32" rx="7" fill="url(#g)"/>
  <!-- back page -->
  <rect x="9" y="7.5" width="12" height="15" rx="2.5" fill="#FFFFFF" fill-opacity="0.45"/>
  <!-- front page with folded corner -->
  <path d="M12 10.5a2.5 2.5 0 0 1 2.5-2.5h5.2L24 12.3V22a2.5 2.5 0 0 1-2.5 2.5h-7A2.5 2.5 0 0 1 12 22V10.5Z" fill="#FFFFFF"/>
  <path d="M19.4 8v2.9a1.6 1.6 0 0 0 1.6 1.6H24" fill="none" stroke="#E23C17" stroke-width="1.3" stroke-linejoin="round"/>
  <rect x="14.6" y="15" width="6.8" height="1.5" rx="0.75" fill="#F5623B"/>
  <rect x="14.6" y="18.2" width="4.8" height="1.5" rx="0.75" fill="#F5623B"/>
</svg>
